<mxfile host="Electron" modified="2024-05-11T14:00:47.785Z" agent="Mozilla/5.0 (Macintosh; Intel Mac OS X 10_15_7) AppleWebKit/537.36 (KHTML, like Gecko) draw.io/24.2.5 Chrome/120.0.6099.109 Electron/28.1.0 Safari/537.36" etag="JiE6xvyY8rzS9x4SFbvQ" version="24.2.5" type="device">
  <diagram name="Страница — 1" id="ZqZXyEbzUBwYqsU_-7u7">
    <mxGraphModel dx="708" dy="455" grid="1" gridSize="10" guides="1" tooltips="1" connect="1" arrows="1" fold="1" page="1" pageScale="1" pageWidth="827" pageHeight="1169" math="0" shadow="0">
      <root>
        <mxCell id="0" />
        <mxCell id="1" parent="0" />
        <mxCell id="MAi7tHNXn-p32uOdITLX-149" value="" style="rounded=0;whiteSpace=wrap;html=1;hachureGap=4;fontFamily=Architects Daughter;fontSource=https%3A%2F%2Ffonts.googleapis.com%2Fcss%3Ffamily%3DArchitects%2BDaughter;fillColor=none;dashed=1;dashPattern=8 8;" parent="1" vertex="1">
          <mxGeometry x="120" y="470" width="850" height="660" as="geometry" />
        </mxCell>
        <mxCell id="MAi7tHNXn-p32uOdITLX-19" style="edgeStyle=orthogonalEdgeStyle;rounded=0;orthogonalLoop=1;jettySize=auto;html=1;entryX=0.5;entryY=0;entryDx=0;entryDy=0;sketch=1;curveFitting=1;jiggle=2;" parent="1" target="MAi7tHNXn-p32uOdITLX-18" edge="1">
          <mxGeometry relative="1" as="geometry">
            <mxPoint x="484.9999999999999" y="320" as="sourcePoint" />
          </mxGeometry>
        </mxCell>
        <mxCell id="MAi7tHNXn-p32uOdITLX-21" style="edgeStyle=orthogonalEdgeStyle;rounded=0;orthogonalLoop=1;jettySize=auto;html=1;exitX=0.5;exitY=1;exitDx=0;exitDy=0;entryX=0.5;entryY=0;entryDx=0;entryDy=0;sketch=1;curveFitting=1;jiggle=2;" parent="1" source="MAi7tHNXn-p32uOdITLX-18" target="MAi7tHNXn-p32uOdITLX-20" edge="1">
          <mxGeometry relative="1" as="geometry" />
        </mxCell>
        <mxCell id="MAi7tHNXn-p32uOdITLX-83" value="HTTP" style="edgeLabel;html=1;align=center;verticalAlign=middle;resizable=0;points=[];sketch=1;hachureGap=4;jiggle=2;curveFitting=1;fontFamily=Architects Daughter;fontSource=https%3A%2F%2Ffonts.googleapis.com%2Fcss%3Ffamily%3DArchitects%2BDaughter;" parent="MAi7tHNXn-p32uOdITLX-21" vertex="1" connectable="0">
          <mxGeometry x="-0.2744" y="-1" relative="1" as="geometry">
            <mxPoint x="2" y="3" as="offset" />
          </mxGeometry>
        </mxCell>
        <mxCell id="MAi7tHNXn-p32uOdITLX-18" value="iOS&lt;br&gt;app" style="rounded=1;whiteSpace=wrap;html=1;sketch=1;curveFitting=1;jiggle=2;fillColor=#dae8fc;strokeColor=#6c8ebf;" parent="1" vertex="1">
          <mxGeometry x="460" y="350" width="50" height="90" as="geometry" />
        </mxCell>
        <mxCell id="MAi7tHNXn-p32uOdITLX-100" style="edgeStyle=orthogonalEdgeStyle;rounded=0;sketch=1;hachureGap=4;jiggle=2;curveFitting=1;orthogonalLoop=1;jettySize=auto;html=1;exitX=1;exitY=0.75;exitDx=0;exitDy=0;entryX=0.5;entryY=0;entryDx=0;entryDy=0;fontFamily=Architects Daughter;fontSource=https%3A%2F%2Ffonts.googleapis.com%2Fcss%3Ffamily%3DArchitects%2BDaughter;flowAnimation=0;jumpStyle=none;" parent="1" source="MAi7tHNXn-p32uOdITLX-20" target="MAi7tHNXn-p32uOdITLX-25" edge="1">
          <mxGeometry relative="1" as="geometry" />
        </mxCell>
        <mxCell id="MAi7tHNXn-p32uOdITLX-101" style="edgeStyle=orthogonalEdgeStyle;rounded=0;sketch=1;hachureGap=4;jiggle=2;curveFitting=1;orthogonalLoop=1;jettySize=auto;html=1;exitX=0.75;exitY=1;exitDx=0;exitDy=0;entryX=0;entryY=0.5;entryDx=0;entryDy=0;fontFamily=Architects Daughter;fontSource=https%3A%2F%2Ffonts.googleapis.com%2Fcss%3Ffamily%3DArchitects%2BDaughter;" parent="1" source="MAi7tHNXn-p32uOdITLX-20" target="MAi7tHNXn-p32uOdITLX-33" edge="1">
          <mxGeometry relative="1" as="geometry">
            <Array as="points">
              <mxPoint x="590" y="570" />
              <mxPoint x="590" y="814" />
            </Array>
          </mxGeometry>
        </mxCell>
        <mxCell id="vugBoc9tPiIdb65islMO-11" style="edgeStyle=orthogonalEdgeStyle;rounded=0;sketch=1;hachureGap=4;jiggle=2;curveFitting=1;orthogonalLoop=1;jettySize=auto;html=1;exitX=1;exitY=0.5;exitDx=0;exitDy=0;entryX=1;entryY=0;entryDx=0;entryDy=0;fontFamily=Architects Daughter;fontSource=https%3A%2F%2Ffonts.googleapis.com%2Fcss%3Ffamily%3DArchitects%2BDaughter;" parent="1" source="MAi7tHNXn-p32uOdITLX-20" target="vugBoc9tPiIdb65islMO-2" edge="1">
          <mxGeometry relative="1" as="geometry">
            <Array as="points">
              <mxPoint x="550" y="530" />
            </Array>
          </mxGeometry>
        </mxCell>
        <mxCell id="MAi7tHNXn-p32uOdITLX-20" value="API Gateway" style="shape=offPageConnector;whiteSpace=wrap;html=1;sketch=1;curveFitting=1;jiggle=2;fillColor=#fff2cc;strokeColor=#d6b656;" parent="1" vertex="1">
          <mxGeometry x="445" y="490" width="80" height="80" as="geometry" />
        </mxCell>
        <mxCell id="MAi7tHNXn-p32uOdITLX-41" style="edgeStyle=orthogonalEdgeStyle;rounded=0;orthogonalLoop=1;jettySize=auto;html=1;exitX=1;exitY=0.5;exitDx=0;exitDy=0;entryX=0.5;entryY=1;entryDx=0;entryDy=0;sketch=1;curveFitting=1;jiggle=2;" parent="1" source="MAi7tHNXn-p32uOdITLX-23" target="MAi7tHNXn-p32uOdITLX-34" edge="1">
          <mxGeometry relative="1" as="geometry" />
        </mxCell>
        <mxCell id="MAi7tHNXn-p32uOdITLX-23" value="Profile service" style="rounded=0;whiteSpace=wrap;html=1;sketch=1;curveFitting=1;jiggle=2;fillColor=#f5f5f5;fontColor=#333333;strokeColor=#666666;" parent="1" vertex="1">
          <mxGeometry x="420" y="690" width="120" height="60" as="geometry" />
        </mxCell>
        <mxCell id="MAi7tHNXn-p32uOdITLX-36" style="edgeStyle=orthogonalEdgeStyle;rounded=0;orthogonalLoop=1;jettySize=auto;html=1;entryX=-0.008;entryY=0.438;entryDx=0;entryDy=0;sketch=1;curveFitting=1;jiggle=2;entryPerimeter=0;" parent="1" source="MAi7tHNXn-p32uOdITLX-24" target="MAi7tHNXn-p32uOdITLX-23" edge="1">
          <mxGeometry relative="1" as="geometry" />
        </mxCell>
        <mxCell id="MAi7tHNXn-p32uOdITLX-72" style="edgeStyle=orthogonalEdgeStyle;rounded=0;sketch=1;hachureGap=4;jiggle=2;curveFitting=1;orthogonalLoop=1;jettySize=auto;html=1;exitX=0.5;exitY=0;exitDx=0;exitDy=0;entryX=0.5;entryY=1;entryDx=0;entryDy=0;fontFamily=Architects Daughter;fontSource=https%3A%2F%2Ffonts.googleapis.com%2Fcss%3Ffamily%3DArchitects%2BDaughter;" parent="1" source="MAi7tHNXn-p32uOdITLX-24" target="MAi7tHNXn-p32uOdITLX-32" edge="1">
          <mxGeometry relative="1" as="geometry" />
        </mxCell>
        <mxCell id="MAi7tHNXn-p32uOdITLX-24" value="Recommendation service" style="rounded=0;whiteSpace=wrap;html=1;sketch=1;curveFitting=1;jiggle=2;fillColor=#d5e8d4;strokeColor=#82b366;" parent="1" vertex="1">
          <mxGeometry x="240" y="670" width="120" height="60" as="geometry" />
        </mxCell>
        <mxCell id="MAi7tHNXn-p32uOdITLX-25" value="Random Coffee&lt;br&gt;service" style="rounded=0;whiteSpace=wrap;html=1;sketch=1;curveFitting=1;jiggle=2;fillColor=#f5f5f5;fontColor=#333333;strokeColor=#666666;" parent="1" vertex="1">
          <mxGeometry x="572" y="890" width="120" height="60" as="geometry" />
        </mxCell>
        <mxCell id="MAi7tHNXn-p32uOdITLX-52" value="" style="edgeStyle=orthogonalEdgeStyle;rounded=0;sketch=1;hachureGap=4;jiggle=2;curveFitting=1;orthogonalLoop=1;jettySize=auto;html=1;fontFamily=Architects Daughter;fontSource=https%3A%2F%2Ffonts.googleapis.com%2Fcss%3Ffamily%3DArchitects%2BDaughter;" parent="1" source="MAi7tHNXn-p32uOdITLX-26" target="MAi7tHNXn-p32uOdITLX-51" edge="1">
          <mxGeometry relative="1" as="geometry" />
        </mxCell>
        <mxCell id="MAi7tHNXn-p32uOdITLX-26" value="User service" style="rounded=0;whiteSpace=wrap;html=1;sketch=1;curveFitting=1;jiggle=2;fillColor=#d5e8d4;strokeColor=#82b366;" parent="1" vertex="1">
          <mxGeometry x="240" y="750" width="120" height="60" as="geometry" />
        </mxCell>
        <mxCell id="MAi7tHNXn-p32uOdITLX-32" value="Oracle service" style="rounded=0;whiteSpace=wrap;html=1;sketch=1;curveFitting=1;jiggle=2;fillColor=#d5e8d4;strokeColor=#82b366;" parent="1" vertex="1">
          <mxGeometry x="270" y="605" width="60" height="40" as="geometry" />
        </mxCell>
        <mxCell id="MAi7tHNXn-p32uOdITLX-45" style="edgeStyle=orthogonalEdgeStyle;rounded=0;orthogonalLoop=1;jettySize=auto;html=1;sketch=1;curveFitting=1;jiggle=2;" parent="1" source="MAi7tHNXn-p32uOdITLX-33" target="MAi7tHNXn-p32uOdITLX-43" edge="1">
          <mxGeometry relative="1" as="geometry" />
        </mxCell>
        <mxCell id="MAi7tHNXn-p32uOdITLX-46" style="edgeStyle=orthogonalEdgeStyle;rounded=0;orthogonalLoop=1;jettySize=auto;html=1;exitX=1;exitY=0.5;exitDx=0;exitDy=0;sketch=1;curveFitting=1;jiggle=2;" parent="1" source="MAi7tHNXn-p32uOdITLX-33" target="MAi7tHNXn-p32uOdITLX-44" edge="1">
          <mxGeometry relative="1" as="geometry" />
        </mxCell>
        <mxCell id="MAi7tHNXn-p32uOdITLX-33" value="Chat&lt;br&gt;service" style="rounded=0;whiteSpace=wrap;html=1;sketch=1;curveFitting=1;jiggle=2;fillColor=#d5e8d4;strokeColor=#82b366;" parent="1" vertex="1">
          <mxGeometry x="692" y="784" width="120" height="60" as="geometry" />
        </mxCell>
        <mxCell id="MAi7tHNXn-p32uOdITLX-49" style="edgeStyle=orthogonalEdgeStyle;rounded=0;orthogonalLoop=1;jettySize=auto;html=1;sketch=1;curveFitting=1;jiggle=2;" parent="1" source="MAi7tHNXn-p32uOdITLX-34" target="MAi7tHNXn-p32uOdITLX-48" edge="1">
          <mxGeometry relative="1" as="geometry" />
        </mxCell>
        <mxCell id="MAi7tHNXn-p32uOdITLX-85" value="HTTP" style="edgeLabel;html=1;align=center;verticalAlign=middle;resizable=0;points=[];sketch=1;hachureGap=4;jiggle=2;curveFitting=1;fontFamily=Architects Daughter;fontSource=https%3A%2F%2Ffonts.googleapis.com%2Fcss%3Ffamily%3DArchitects%2BDaughter;" parent="MAi7tHNXn-p32uOdITLX-49" vertex="1" connectable="0">
          <mxGeometry x="0.0684" y="1" relative="1" as="geometry">
            <mxPoint as="offset" />
          </mxGeometry>
        </mxCell>
        <mxCell id="MAi7tHNXn-p32uOdITLX-34" value="Notification service" style="rounded=0;whiteSpace=wrap;html=1;sketch=1;curveFitting=1;jiggle=2;fillColor=#f5f5f5;fontColor=#333333;strokeColor=#666666;" parent="1" vertex="1">
          <mxGeometry x="670" y="620" width="120" height="60" as="geometry" />
        </mxCell>
        <mxCell id="MAi7tHNXn-p32uOdITLX-39" style="edgeStyle=orthogonalEdgeStyle;rounded=0;orthogonalLoop=1;jettySize=auto;html=1;entryX=1.007;entryY=0.541;entryDx=0;entryDy=0;entryPerimeter=0;sketch=1;curveFitting=1;jiggle=2;" parent="1" source="MAi7tHNXn-p32uOdITLX-23" target="MAi7tHNXn-p32uOdITLX-26" edge="1">
          <mxGeometry relative="1" as="geometry" />
        </mxCell>
        <mxCell id="MAi7tHNXn-p32uOdITLX-43" value="Redis" style="strokeWidth=2;html=1;shape=mxgraph.flowchart.database;whiteSpace=wrap;sketch=1;curveFitting=1;jiggle=2;fillColor=#f8cecc;strokeColor=#b85450;" parent="1" vertex="1">
          <mxGeometry x="860" y="720" width="70" height="70" as="geometry" />
        </mxCell>
        <mxCell id="MAi7tHNXn-p32uOdITLX-44" value="&lt;font style=&quot;font-size: 11px;&quot;&gt;PostgreSQL&lt;/font&gt;" style="strokeWidth=2;html=1;shape=mxgraph.flowchart.database;whiteSpace=wrap;sketch=1;curveFitting=1;jiggle=2;fillColor=#dae8fc;strokeColor=#6c8ebf;" parent="1" vertex="1">
          <mxGeometry x="860" y="830" width="70" height="70" as="geometry" />
        </mxCell>
        <mxCell id="MAi7tHNXn-p32uOdITLX-48" value="Apple services" style="ellipse;shape=cloud;whiteSpace=wrap;html=1;sketch=1;curveFitting=1;jiggle=2;" parent="1" vertex="1">
          <mxGeometry x="670" y="346" width="120" height="80" as="geometry" />
        </mxCell>
        <mxCell id="MAi7tHNXn-p32uOdITLX-51" value="Redis" style="strokeWidth=2;html=1;shape=mxgraph.flowchart.database;whiteSpace=wrap;sketch=1;curveFitting=1;jiggle=2;fillColor=#f8cecc;strokeColor=#b85450;" parent="1" vertex="1">
          <mxGeometry x="130" y="745" width="70" height="70" as="geometry" />
        </mxCell>
        <mxCell id="MAi7tHNXn-p32uOdITLX-55" value="&lt;font style=&quot;font-size: 11px;&quot;&gt;PostgreSQL&lt;/font&gt;" style="strokeWidth=2;html=1;shape=mxgraph.flowchart.database;whiteSpace=wrap;sketch=1;curveFitting=1;jiggle=2;fillColor=#dae8fc;strokeColor=#6c8ebf;" parent="1" vertex="1">
          <mxGeometry x="130" y="600" width="70" height="70" as="geometry" />
        </mxCell>
        <mxCell id="MAi7tHNXn-p32uOdITLX-56" style="edgeStyle=orthogonalEdgeStyle;rounded=0;sketch=1;hachureGap=4;jiggle=2;curveFitting=1;orthogonalLoop=1;jettySize=auto;html=1;exitX=0;exitY=0.5;exitDx=0;exitDy=0;entryX=0.988;entryY=0.662;entryDx=0;entryDy=0;entryPerimeter=0;fontFamily=Architects Daughter;fontSource=https%3A%2F%2Ffonts.googleapis.com%2Fcss%3Ffamily%3DArchitects%2BDaughter;" parent="1" source="MAi7tHNXn-p32uOdITLX-24" target="MAi7tHNXn-p32uOdITLX-55" edge="1">
          <mxGeometry relative="1" as="geometry" />
        </mxCell>
        <mxCell id="MAi7tHNXn-p32uOdITLX-59" style="edgeStyle=orthogonalEdgeStyle;rounded=0;sketch=1;hachureGap=4;jiggle=2;curveFitting=1;orthogonalLoop=1;jettySize=auto;html=1;exitX=0;exitY=0.5;exitDx=0;exitDy=0;entryX=0.98;entryY=0.354;entryDx=0;entryDy=0;entryPerimeter=0;fontFamily=Architects Daughter;fontSource=https%3A%2F%2Ffonts.googleapis.com%2Fcss%3Ffamily%3DArchitects%2BDaughter;" parent="1" source="MAi7tHNXn-p32uOdITLX-32" target="MAi7tHNXn-p32uOdITLX-55" edge="1">
          <mxGeometry relative="1" as="geometry" />
        </mxCell>
        <mxCell id="MAi7tHNXn-p32uOdITLX-63" value="&lt;font style=&quot;font-size: 6px;&quot;&gt;HTTP proxy&lt;/font&gt;" style="text;html=1;align=center;verticalAlign=middle;resizable=0;points=[];autosize=1;strokeColor=none;fillColor=none;fontFamily=Architects Daughter;fontSource=https%3A%2F%2Ffonts.googleapis.com%2Fcss%3Ffamily%3DArchitects%2BDaughter;" parent="1" vertex="1">
          <mxGeometry x="307" y="704" width="60" height="30" as="geometry" />
        </mxCell>
        <mxCell id="MAi7tHNXn-p32uOdITLX-64" value="&lt;font style=&quot;font-size: 6px;&quot;&gt;HTTP proxy&lt;/font&gt;" style="text;html=1;align=center;verticalAlign=middle;resizable=0;points=[];autosize=1;strokeColor=none;fillColor=none;fontFamily=Architects Daughter;fontSource=https%3A%2F%2Ffonts.googleapis.com%2Fcss%3Ffamily%3DArchitects%2BDaughter;" parent="1" vertex="1">
          <mxGeometry x="307" y="784" width="60" height="30" as="geometry" />
        </mxCell>
        <mxCell id="MAi7tHNXn-p32uOdITLX-67" value="&lt;font style=&quot;font-size: 6px;&quot;&gt;HTTP proxy&lt;/font&gt;" style="text;html=1;align=center;verticalAlign=middle;resizable=0;points=[];autosize=1;strokeColor=none;fillColor=none;fontFamily=Architects Daughter;fontSource=https%3A%2F%2Ffonts.googleapis.com%2Fcss%3Ffamily%3DArchitects%2BDaughter;" parent="1" vertex="1">
          <mxGeometry x="758" y="817" width="60" height="30" as="geometry" />
        </mxCell>
        <mxCell id="MAi7tHNXn-p32uOdITLX-68" value="&lt;font style=&quot;font-size: 6px;&quot;&gt;HTTP proxy&lt;/font&gt;" style="text;html=1;align=center;verticalAlign=middle;resizable=0;points=[];autosize=1;strokeColor=none;fillColor=none;fontFamily=Architects Daughter;fontSource=https%3A%2F%2Ffonts.googleapis.com%2Fcss%3Ffamily%3DArchitects%2BDaughter;" parent="1" vertex="1">
          <mxGeometry x="640" y="923" width="60" height="30" as="geometry" />
        </mxCell>
        <mxCell id="MAi7tHNXn-p32uOdITLX-69" value="&lt;font style=&quot;font-size: 6px;&quot;&gt;HTTP proxy&lt;/font&gt;" style="text;html=1;align=center;verticalAlign=middle;resizable=0;points=[];autosize=1;strokeColor=none;fillColor=none;fontFamily=Architects Daughter;fontSource=https%3A%2F%2Ffonts.googleapis.com%2Fcss%3Ffamily%3DArchitects%2BDaughter;" parent="1" vertex="1">
          <mxGeometry x="487" y="725" width="60" height="30" as="geometry" />
        </mxCell>
        <mxCell id="MAi7tHNXn-p32uOdITLX-71" value="&lt;font style=&quot;font-size: 6px;&quot;&gt;HTTP proxy&lt;/font&gt;" style="text;html=1;align=center;verticalAlign=middle;resizable=0;points=[];autosize=1;strokeColor=none;fillColor=none;fontFamily=Architects Daughter;fontSource=https%3A%2F%2Ffonts.googleapis.com%2Fcss%3Ffamily%3DArchitects%2BDaughter;" parent="1" vertex="1">
          <mxGeometry x="738" y="654" width="60" height="30" as="geometry" />
        </mxCell>
        <mxCell id="MAi7tHNXn-p32uOdITLX-76" style="edgeStyle=orthogonalEdgeStyle;rounded=0;sketch=1;hachureGap=4;jiggle=2;curveFitting=1;orthogonalLoop=1;jettySize=auto;html=1;exitX=0.5;exitY=1;exitDx=0;exitDy=0;fontFamily=Architects Daughter;fontSource=https%3A%2F%2Ffonts.googleapis.com%2Fcss%3Ffamily%3DArchitects%2BDaughter;" parent="1" source="MAi7tHNXn-p32uOdITLX-73" target="MAi7tHNXn-p32uOdITLX-75" edge="1">
          <mxGeometry relative="1" as="geometry" />
        </mxCell>
        <mxCell id="MAi7tHNXn-p32uOdITLX-73" value="&lt;font style=&quot;font-size: 9px;&quot;&gt;&lt;br&gt;moderator&lt;/font&gt;" style="shape=actor;whiteSpace=wrap;html=1;sketch=1;curveFitting=1;jiggle=2;fillColor=#d5e8d4;strokeColor=#82b366;" parent="1" vertex="1">
          <mxGeometry x="270" y="250" width="60" height="70" as="geometry" />
        </mxCell>
        <mxCell id="MAi7tHNXn-p32uOdITLX-74" value="&lt;div&gt;&lt;br&gt;&lt;/div&gt;&lt;font style=&quot;font-size: 10px;&quot;&gt;user&lt;/font&gt;" style="shape=actor;whiteSpace=wrap;html=1;sketch=1;curveFitting=1;jiggle=2;fillColor=#d5e8d4;strokeColor=#82b366;" parent="1" vertex="1">
          <mxGeometry x="455" y="250" width="60" height="70" as="geometry" />
        </mxCell>
        <mxCell id="MAi7tHNXn-p32uOdITLX-78" style="edgeStyle=orthogonalEdgeStyle;rounded=0;sketch=1;hachureGap=4;jiggle=2;curveFitting=1;orthogonalLoop=1;jettySize=auto;html=1;exitX=0.5;exitY=1;exitDx=0;exitDy=0;entryX=0.5;entryY=0;entryDx=0;entryDy=0;fontFamily=Architects Daughter;fontSource=https%3A%2F%2Ffonts.googleapis.com%2Fcss%3Ffamily%3DArchitects%2BDaughter;" parent="1" source="MAi7tHNXn-p32uOdITLX-75" target="MAi7tHNXn-p32uOdITLX-77" edge="1">
          <mxGeometry relative="1" as="geometry" />
        </mxCell>
        <mxCell id="MAi7tHNXn-p32uOdITLX-81" value="HTTP" style="edgeLabel;html=1;align=center;verticalAlign=middle;resizable=0;points=[];sketch=1;hachureGap=4;jiggle=2;curveFitting=1;fontFamily=Architects Daughter;fontSource=https%3A%2F%2Ffonts.googleapis.com%2Fcss%3Ffamily%3DArchitects%2BDaughter;" parent="MAi7tHNXn-p32uOdITLX-78" vertex="1" connectable="0">
          <mxGeometry x="-0.1138" y="1" relative="1" as="geometry">
            <mxPoint as="offset" />
          </mxGeometry>
        </mxCell>
        <mxCell id="MAi7tHNXn-p32uOdITLX-75" value="Admin panel UI" style="rounded=1;whiteSpace=wrap;html=1;sketch=1;curveFitting=1;jiggle=2;fillColor=#dae8fc;strokeColor=#6c8ebf;" parent="1" vertex="1">
          <mxGeometry x="235" y="360" width="130" height="50" as="geometry" />
        </mxCell>
        <mxCell id="MAi7tHNXn-p32uOdITLX-82" style="edgeStyle=orthogonalEdgeStyle;rounded=0;sketch=1;hachureGap=4;jiggle=2;curveFitting=1;orthogonalLoop=1;jettySize=auto;html=1;fontFamily=Architects Daughter;fontSource=https%3A%2F%2Ffonts.googleapis.com%2Fcss%3Ffamily%3DArchitects%2BDaughter;" parent="1" source="MAi7tHNXn-p32uOdITLX-77" target="MAi7tHNXn-p32uOdITLX-23" edge="1">
          <mxGeometry relative="1" as="geometry">
            <Array as="points">
              <mxPoint x="300" y="590" />
              <mxPoint x="420" y="590" />
            </Array>
          </mxGeometry>
        </mxCell>
        <mxCell id="MAi7tHNXn-p32uOdITLX-89" style="edgeStyle=orthogonalEdgeStyle;rounded=0;sketch=1;hachureGap=4;jiggle=2;curveFitting=1;orthogonalLoop=1;jettySize=auto;html=1;exitX=0;exitY=0.5;exitDx=0;exitDy=0;fontFamily=Architects Daughter;fontSource=https%3A%2F%2Ffonts.googleapis.com%2Fcss%3Ffamily%3DArchitects%2BDaughter;" parent="1" source="MAi7tHNXn-p32uOdITLX-77" target="MAi7tHNXn-p32uOdITLX-88" edge="1">
          <mxGeometry relative="1" as="geometry" />
        </mxCell>
        <mxCell id="MAi7tHNXn-p32uOdITLX-77" value="Administration service" style="rounded=0;whiteSpace=wrap;html=1;sketch=1;curveFitting=1;jiggle=2;fillColor=#d5e8d4;strokeColor=#82b366;" parent="1" vertex="1">
          <mxGeometry x="240" y="482.61" width="120" height="60" as="geometry" />
        </mxCell>
        <mxCell id="MAi7tHNXn-p32uOdITLX-84" style="edgeStyle=orthogonalEdgeStyle;rounded=0;sketch=1;hachureGap=4;jiggle=2;curveFitting=1;orthogonalLoop=1;jettySize=auto;html=1;exitX=0.16;exitY=0.55;exitDx=0;exitDy=0;exitPerimeter=0;entryX=0.978;entryY=0.448;entryDx=0;entryDy=0;entryPerimeter=0;fontFamily=Architects Daughter;fontSource=https%3A%2F%2Ffonts.googleapis.com%2Fcss%3Ffamily%3DArchitects%2BDaughter;" parent="1" source="MAi7tHNXn-p32uOdITLX-48" target="MAi7tHNXn-p32uOdITLX-18" edge="1">
          <mxGeometry relative="1" as="geometry" />
        </mxCell>
        <mxCell id="MAi7tHNXn-p32uOdITLX-87" value="&lt;font style=&quot;font-size: 11px;&quot;&gt;PostgreSQL&lt;/font&gt;" style="strokeWidth=2;html=1;shape=mxgraph.flowchart.database;whiteSpace=wrap;sketch=1;curveFitting=1;jiggle=2;fillColor=#dae8fc;strokeColor=#6c8ebf;" parent="1" vertex="1">
          <mxGeometry x="597" y="980" width="70" height="70" as="geometry" />
        </mxCell>
        <mxCell id="MAi7tHNXn-p32uOdITLX-88" value="&lt;font style=&quot;font-size: 11px;&quot;&gt;PostgreSQL&lt;/font&gt;" style="strokeWidth=2;html=1;shape=mxgraph.flowchart.database;whiteSpace=wrap;sketch=1;curveFitting=1;jiggle=2;fillColor=#dae8fc;strokeColor=#6c8ebf;" parent="1" vertex="1">
          <mxGeometry x="130" y="477.61" width="70" height="70" as="geometry" />
        </mxCell>
        <mxCell id="MAi7tHNXn-p32uOdITLX-90" style="edgeStyle=orthogonalEdgeStyle;rounded=0;sketch=1;hachureGap=4;jiggle=2;curveFitting=1;orthogonalLoop=1;jettySize=auto;html=1;exitX=0.5;exitY=1;exitDx=0;exitDy=0;entryX=0.5;entryY=0;entryDx=0;entryDy=0;entryPerimeter=0;fontFamily=Architects Daughter;fontSource=https%3A%2F%2Ffonts.googleapis.com%2Fcss%3Ffamily%3DArchitects%2BDaughter;" parent="1" source="MAi7tHNXn-p32uOdITLX-25" target="MAi7tHNXn-p32uOdITLX-87" edge="1">
          <mxGeometry relative="1" as="geometry" />
        </mxCell>
        <mxCell id="MAi7tHNXn-p32uOdITLX-95" value="&lt;font face=&quot;Times New Roman&quot;&gt;k8s cluster&lt;/font&gt;" style="text;html=1;align=center;verticalAlign=middle;resizable=0;points=[];autosize=1;strokeColor=none;fillColor=none;fontFamily=Architects Daughter;fontSource=https%3A%2F%2Ffonts.googleapis.com%2Fcss%3Ffamily%3DArchitects%2BDaughter;" parent="1" vertex="1">
          <mxGeometry x="890" y="470" width="80" height="30" as="geometry" />
        </mxCell>
        <mxCell id="MAi7tHNXn-p32uOdITLX-97" style="edgeStyle=orthogonalEdgeStyle;rounded=0;sketch=1;hachureGap=4;jiggle=2;curveFitting=1;orthogonalLoop=1;jettySize=auto;html=1;exitX=0.5;exitY=1;exitDx=0;exitDy=0;entryX=0.543;entryY=0.03;entryDx=0;entryDy=0;entryPerimeter=0;fontFamily=Architects Daughter;fontSource=https%3A%2F%2Ffonts.googleapis.com%2Fcss%3Ffamily%3DArchitects%2BDaughter;" parent="1" source="MAi7tHNXn-p32uOdITLX-20" target="MAi7tHNXn-p32uOdITLX-23" edge="1">
          <mxGeometry relative="1" as="geometry" />
        </mxCell>
        <mxCell id="MAi7tHNXn-p32uOdITLX-99" style="edgeStyle=orthogonalEdgeStyle;rounded=0;sketch=1;hachureGap=4;jiggle=2;curveFitting=1;orthogonalLoop=1;jettySize=auto;html=1;exitX=0;exitY=0.75;exitDx=0;exitDy=0;entryX=0.807;entryY=-0.068;entryDx=0;entryDy=0;entryPerimeter=0;fontFamily=Architects Daughter;fontSource=https%3A%2F%2Ffonts.googleapis.com%2Fcss%3Ffamily%3DArchitects%2BDaughter;" parent="1" source="MAi7tHNXn-p32uOdITLX-20" target="MAi7tHNXn-p32uOdITLX-24" edge="1">
          <mxGeometry relative="1" as="geometry" />
        </mxCell>
        <mxCell id="MAi7tHNXn-p32uOdITLX-105" value="&lt;font style=&quot;font-size: 11px;&quot;&gt;PostgreSQL&lt;/font&gt;" style="strokeWidth=2;html=1;shape=mxgraph.flowchart.database;whiteSpace=wrap;sketch=1;curveFitting=1;jiggle=2;fillColor=#dae8fc;strokeColor=#6c8ebf;" parent="1" vertex="1">
          <mxGeometry x="445" y="790" width="70" height="70" as="geometry" />
        </mxCell>
        <mxCell id="MAi7tHNXn-p32uOdITLX-109" style="edgeStyle=orthogonalEdgeStyle;rounded=0;sketch=1;hachureGap=4;jiggle=2;curveFitting=1;orthogonalLoop=1;jettySize=auto;html=1;exitX=0.5;exitY=1;exitDx=0;exitDy=0;entryX=0.5;entryY=0;entryDx=0;entryDy=0;entryPerimeter=0;fontFamily=Architects Daughter;fontSource=https%3A%2F%2Ffonts.googleapis.com%2Fcss%3Ffamily%3DArchitects%2BDaughter;" parent="1" source="MAi7tHNXn-p32uOdITLX-23" target="MAi7tHNXn-p32uOdITLX-105" edge="1">
          <mxGeometry relative="1" as="geometry" />
        </mxCell>
        <mxCell id="MAi7tHNXn-p32uOdITLX-119" value="&lt;font face=&quot;Helvetica&quot;&gt;Grafana&lt;/font&gt;" style="verticalAlign=top;align=center;spacingTop=8;spacingLeft=2;spacingRight=12;shape=cube;size=10;direction=south;fontStyle=4;html=1;whiteSpace=wrap;sketch=1;hachureGap=4;jiggle=2;curveFitting=1;fontFamily=Architects Daughter;fontSource=https%3A%2F%2Ffonts.googleapis.com%2Fcss%3Ffamily%3DArchitects%2BDaughter;fillColor=#dae8fc;strokeColor=#6c8ebf;" parent="1" vertex="1">
          <mxGeometry x="852.5" y="1060" width="105" height="50" as="geometry" />
        </mxCell>
        <mxCell id="MAi7tHNXn-p32uOdITLX-120" value="&lt;font face=&quot;Helvetica&quot;&gt;Prometheus&lt;/font&gt;" style="verticalAlign=top;align=center;spacingTop=8;spacingLeft=2;spacingRight=12;shape=cube;size=10;direction=south;fontStyle=4;html=1;whiteSpace=wrap;sketch=1;hachureGap=4;jiggle=2;curveFitting=1;fontFamily=Architects Daughter;fontSource=https%3A%2F%2Ffonts.googleapis.com%2Fcss%3Ffamily%3DArchitects%2BDaughter;fillColor=#ffe6cc;strokeColor=#d79b00;" parent="1" vertex="1">
          <mxGeometry x="852.5" y="980" width="105" height="50" as="geometry" />
        </mxCell>
        <mxCell id="MAi7tHNXn-p32uOdITLX-121" style="edgeStyle=orthogonalEdgeStyle;rounded=0;sketch=1;hachureGap=4;jiggle=2;curveFitting=1;orthogonalLoop=1;jettySize=auto;html=1;exitX=0;exitY=0;exitDx=0;exitDy=47.5;exitPerimeter=0;entryX=1.02;entryY=0.497;entryDx=0;entryDy=0;entryPerimeter=0;fontFamily=Architects Daughter;fontSource=https%3A%2F%2Ffonts.googleapis.com%2Fcss%3Ffamily%3DArchitects%2BDaughter;" parent="1" source="MAi7tHNXn-p32uOdITLX-119" target="MAi7tHNXn-p32uOdITLX-120" edge="1">
          <mxGeometry relative="1" as="geometry" />
        </mxCell>
        <mxCell id="MAi7tHNXn-p32uOdITLX-122" value="&lt;font face=&quot;Helvetica&quot;&gt;Jaeger&lt;/font&gt;" style="verticalAlign=top;align=center;spacingTop=8;spacingLeft=2;spacingRight=12;shape=cube;size=10;direction=south;fontStyle=4;html=1;whiteSpace=wrap;sketch=1;hachureGap=4;jiggle=2;curveFitting=1;fontFamily=Architects Daughter;fontSource=https%3A%2F%2Ffonts.googleapis.com%2Fcss%3Ffamily%3DArchitects%2BDaughter;fillColor=#ffe6cc;strokeColor=#d79b00;" parent="1" vertex="1">
          <mxGeometry x="732.5" y="980" width="105" height="50" as="geometry" />
        </mxCell>
        <mxCell id="MAi7tHNXn-p32uOdITLX-123" value="&lt;font face=&quot;Helvetica&quot;&gt;Jaeger UI&lt;/font&gt;" style="verticalAlign=top;align=center;spacingTop=8;spacingLeft=2;spacingRight=12;shape=cube;size=10;direction=south;fontStyle=4;html=1;whiteSpace=wrap;sketch=1;hachureGap=4;jiggle=2;curveFitting=1;fontFamily=Architects Daughter;fontSource=https%3A%2F%2Ffonts.googleapis.com%2Fcss%3Ffamily%3DArchitects%2BDaughter;fillColor=#dae8fc;strokeColor=#6c8ebf;" parent="1" vertex="1">
          <mxGeometry x="730" y="1060" width="105" height="50" as="geometry" />
        </mxCell>
        <mxCell id="MAi7tHNXn-p32uOdITLX-124" style="edgeStyle=orthogonalEdgeStyle;rounded=0;sketch=1;hachureGap=4;jiggle=2;curveFitting=1;orthogonalLoop=1;jettySize=auto;html=1;exitX=0;exitY=0;exitDx=0;exitDy=47.5;exitPerimeter=0;entryX=1.031;entryY=0.486;entryDx=0;entryDy=0;entryPerimeter=0;fontFamily=Architects Daughter;fontSource=https%3A%2F%2Ffonts.googleapis.com%2Fcss%3Ffamily%3DArchitects%2BDaughter;" parent="1" source="MAi7tHNXn-p32uOdITLX-123" target="MAi7tHNXn-p32uOdITLX-122" edge="1">
          <mxGeometry relative="1" as="geometry" />
        </mxCell>
        <mxCell id="Gyas5eionHsMaOxI-p8p-2" value="" style="edgeStyle=orthogonalEdgeStyle;rounded=0;sketch=1;hachureGap=4;jiggle=2;curveFitting=1;orthogonalLoop=1;jettySize=auto;html=1;fontFamily=Architects Daughter;fontSource=https%3A%2F%2Ffonts.googleapis.com%2Fcss%3Ffamily%3DArchitects%2BDaughter;" edge="1" parent="1" source="vugBoc9tPiIdb65islMO-2" target="Gyas5eionHsMaOxI-p8p-1">
          <mxGeometry relative="1" as="geometry" />
        </mxCell>
        <mxCell id="vugBoc9tPiIdb65islMO-2" value="Events&lt;br&gt;service" style="rounded=0;whiteSpace=wrap;html=1;sketch=1;curveFitting=1;jiggle=2;fillColor=#d5e8d4;strokeColor=#82b366;" parent="1" vertex="1">
          <mxGeometry x="430" y="890" width="120" height="60" as="geometry" />
        </mxCell>
        <mxCell id="vugBoc9tPiIdb65islMO-5" value="&lt;font style=&quot;font-size: 11px;&quot;&gt;PostgreSQL&lt;/font&gt;" style="strokeWidth=2;html=1;shape=mxgraph.flowchart.database;whiteSpace=wrap;sketch=1;curveFitting=1;jiggle=2;fillColor=#dae8fc;strokeColor=#6c8ebf;" parent="1" vertex="1">
          <mxGeometry x="455" y="980" width="70" height="70" as="geometry" />
        </mxCell>
        <mxCell id="vugBoc9tPiIdb65islMO-6" style="edgeStyle=orthogonalEdgeStyle;rounded=0;sketch=1;hachureGap=4;jiggle=2;curveFitting=1;orthogonalLoop=1;jettySize=auto;html=1;exitX=0.5;exitY=1;exitDx=0;exitDy=0;entryX=0.5;entryY=0;entryDx=0;entryDy=0;entryPerimeter=0;fontFamily=Architects Daughter;fontSource=https%3A%2F%2Ffonts.googleapis.com%2Fcss%3Ffamily%3DArchitects%2BDaughter;" parent="1" target="vugBoc9tPiIdb65islMO-5" edge="1">
          <mxGeometry relative="1" as="geometry">
            <mxPoint x="490" y="950" as="sourcePoint" />
          </mxGeometry>
        </mxCell>
        <mxCell id="vugBoc9tPiIdb65islMO-7" value="&lt;font style=&quot;font-size: 6px;&quot;&gt;HTTP proxy&lt;/font&gt;" style="text;html=1;align=center;verticalAlign=middle;resizable=0;points=[];autosize=1;strokeColor=none;fillColor=none;fontFamily=Architects Daughter;fontSource=https%3A%2F%2Ffonts.googleapis.com%2Fcss%3Ffamily%3DArchitects%2BDaughter;" parent="1" vertex="1">
          <mxGeometry x="498" y="923" width="60" height="30" as="geometry" />
        </mxCell>
        <mxCell id="vugBoc9tPiIdb65islMO-8" style="edgeStyle=orthogonalEdgeStyle;rounded=0;sketch=1;hachureGap=4;jiggle=2;curveFitting=1;orthogonalLoop=1;jettySize=auto;html=1;exitX=0.5;exitY=0;exitDx=0;exitDy=0;entryX=-0.006;entryY=0.387;entryDx=0;entryDy=0;entryPerimeter=0;fontFamily=Architects Daughter;fontSource=https%3A%2F%2Ffonts.googleapis.com%2Fcss%3Ffamily%3DArchitects%2BDaughter;" parent="1" source="MAi7tHNXn-p32uOdITLX-25" target="MAi7tHNXn-p32uOdITLX-34" edge="1">
          <mxGeometry relative="1" as="geometry">
            <Array as="points">
              <mxPoint x="650" y="890" />
              <mxPoint x="650" y="643" />
            </Array>
          </mxGeometry>
        </mxCell>
        <mxCell id="vugBoc9tPiIdb65islMO-9" style="edgeStyle=orthogonalEdgeStyle;rounded=0;sketch=1;hachureGap=4;jiggle=2;curveFitting=1;orthogonalLoop=1;jettySize=auto;html=1;entryX=0.883;entryY=0.833;entryDx=0;entryDy=0;entryPerimeter=0;fontFamily=Architects Daughter;fontSource=https%3A%2F%2Ffonts.googleapis.com%2Fcss%3Ffamily%3DArchitects%2BDaughter;" parent="1" target="MAi7tHNXn-p32uOdITLX-69" edge="1">
          <mxGeometry relative="1" as="geometry">
            <mxPoint x="590" y="890" as="sourcePoint" />
            <Array as="points">
              <mxPoint x="590" y="890" />
              <mxPoint x="590" y="823" />
              <mxPoint x="540" y="823" />
            </Array>
          </mxGeometry>
        </mxCell>
        <mxCell id="vugBoc9tPiIdb65islMO-10" style="edgeStyle=orthogonalEdgeStyle;rounded=0;sketch=1;hachureGap=4;jiggle=2;curveFitting=1;orthogonalLoop=1;jettySize=auto;html=1;exitX=0.788;exitY=-0.037;exitDx=0;exitDy=0;entryX=0.647;entryY=0.92;entryDx=0;entryDy=0;entryPerimeter=0;fontFamily=Architects Daughter;fontSource=https%3A%2F%2Ffonts.googleapis.com%2Fcss%3Ffamily%3DArchitects%2BDaughter;exitPerimeter=0;" parent="1" source="vugBoc9tPiIdb65islMO-2" target="MAi7tHNXn-p32uOdITLX-69" edge="1">
          <mxGeometry relative="1" as="geometry">
            <Array as="points">
              <mxPoint x="525" y="890" />
              <mxPoint x="526" y="890" />
            </Array>
          </mxGeometry>
        </mxCell>
        <mxCell id="Gyas5eionHsMaOxI-p8p-1" value="&lt;font face=&quot;Helvetica&quot;&gt;S3 Object Storage&lt;/font&gt;" style="shape=cylinder3;whiteSpace=wrap;html=1;boundedLbl=1;backgroundOutline=1;size=15;sketch=1;hachureGap=4;jiggle=2;curveFitting=1;fontFamily=Architects Daughter;fontSource=https%3A%2F%2Ffonts.googleapis.com%2Fcss%3Ffamily%3DArchitects%2BDaughter;fillColor=#e1d5e7;strokeColor=#9673a6;" vertex="1" parent="1">
          <mxGeometry x="307" y="880" width="60" height="80" as="geometry" />
        </mxCell>
      </root>
    </mxGraphModel>
  </diagram>
</mxfile>
